# xmcd
#
# Track frame offsets: 
#        150
#        13221
#        25549
#        39163
#        47975
#        59729
#        70276
#        85573
#        105562
#        119554
#        132085
#        150295
#        165727
#        180462
#        190500
#        203891
#        216396
#        229809
#        241959
#        255837
#        266708
#        280072
#        293561
#        302938
#        317183
#        331982
#        346311
#
# Disc length: 4795 seconds
#
# Revision: 3
# Processed by: cddbd v1.5.2PL0 Copyright (c) Steve Scherf et al.
# Submitted via: ExactAudioCopy v0.99pb4
#
DISCID=7d12b91b
DTITLE=Albert Lee - That's All Right Mama: The Country Fever And Black
DTITLE=Claw Sessions
DYEAR=2003
DGENRE=Country
TTITLE0=That's All Right Mama
TTITLE1=Best I Can
TTITLE2=Long Gone
TTITLE3=Too Much Of Nothing
TTITLE4=Only Daddy That'll Walk The Line
TTITLE5=Mama Tried
TTITLE6=Rocky Top, Tennesse
TTITLE7=Country In Harlem
TTITLE8=Lay Lady Lay
TTITLE9=Memphis Streets
TTITLE10=Tears Of Rage
TTITLE11=The Victim
TTITLE12=Tonight I'll Be Staying Here With You
TTITLE13=Mama Come Get Your Baby Boy
TTITLE14=The Fool
TTITLE15=Send Me Back To The Mines
TTITLE16=Undiscovered
TTITLE17=Across The Great Divide (Black Claw)
TTITLE18=Good Times (Black Claw)
TTITLE19=Sally (Black Claw)
TTITLE20=I Can't Live Out The Day (Black Claw)
TTITLE21=Six Days On The Road (Black Claw)
TTITLE22=Walkin' Shoes (Black Claw)
TTITLE23=Around And Around (Black Claw)
TTITLE24=St. Louis (Black Claw)
TTITLE25=Look Out Cleveland (Black Claw)
TTITLE26=Brother Preacher (Black Claw)
EXTD=Albert Lee: Lead guitar, vocals (Country Fever -   1 - 17]\nChas 
EXTD=Hodges: Bass, piano, vocals (Black Claw - 18 - 27]\nHarvey Hinsle
EXTD=y: Rhythm guitar\nB.J. Cole: Rhythm guitar\nMatt Fisher: Piano\nM
EXTD=ickey Burt: Drums\nElaine Corlett, Liza Strike: Backing vocals\n\n
EXTD=Produced by Derek Lawrence YEAR: 2003
EXTT0=(Crudup)
EXTT1=(Lee)
EXTT2=(Diamond)
EXTT3=(Dylan)
EXTT4=(Bryant)
EXTT5=(Haggard)
EXTT6=(Bryant/Bryant)
EXTT7=(Lee/Corlett)
EXTT8=(Dylan)
EXTT9=(Diamond)
EXTT10=(Dylan/Manuel)
EXTT11=(Lee)
EXTT12=(Dylan)
EXTT13=(Lee/Corlett)
EXTT14=(Hazlewood)
EXTT15=(Robertson)
EXTT16=Black Claw:\n\tGood Times (Vanda/Young)\t\t\t\t\t\t\t\t\t\t\t\t
EXTT16=\t\t\t\t\t\t\t\t\t\t\t3.05\n\tSally (Hodges/Corlett)\t\t\t\t\t\t
EXTT16=\t\t\t\t\t\t\t\t\t\t\t\t\t\t\t\t\t\t2.25\n\tI Can´t Live Out Th
EXTT16=e Day (Hodges/Peacock)\t\t\t\t\t\t\t\t\t\t\t\t\t\t\t\t\t\t\t2.5
EXTT16=8\n\tSix Days On The Road (Green Montgomery)\t\t\t\t\t\t\t\t\t\t
EXTT16=\t\t\t\t\t\t\t\t\t3.00\n\tWalkin´ Shoes (Lee/Corlett)\t\t\t\t\t
EXTT16=\t\t\t\t\t\t\t\t\t\t\t\t\t\t\t\t\t\t2.05\n\tAround And Around (
EXTT16=Berry)\t\t\t\t\t\t\t\t\t\t\t\t\t\t\t\t\t\t\t\t\t\t\t3.10\n\tSt 
EXTT16=Louis (Vanda/Young)\t\t\t\t\t\t\t\t\t\t\t\t\t\t\t\t\t\t\t\t\t\t
EXTT16=\t\t3.17\n\tLook Out Cleveland (Robertson)\t\t\t\t\t\t\t\t\t\t\t
EXTT16=\t\t\t\t\t\t\t\t\t\t\t3.11\n\tBrother Preacher (Hodges/Peacock)
EXTT16=\t\t\t\t\t\t\t\t\t\t\t\t\t\t\t\t\t\t\t\t\t2.57
EXTT17=
EXTT18=
EXTT19=
EXTT20=
EXTT21=
EXTT22=
EXTT23=
EXTT24=
EXTT25=
EXTT26=
PLAYORDER=
